<?xml version="1.0" encoding="utf-8"?>
<!-- Generator: Adobe Illustrator 23.0.2, SVG Export Plug-In . SVG Version: 6.00 Build 0)  -->
<svg version="1.1" id="Capa_1" xmlns="http://www.w3.org/2000/svg" xmlns:xlink="http://www.w3.org/1999/xlink" x="0px" y="0px"
	 viewBox="0 0 167.66 167.66" style="enable-background:new 0 0 167.66 167.66;" xml:space="preserve">
<style type="text/css">
	.st0{fill:#1778F2;}
</style>
<g>
	<path class="st0" d="M83.83,8.64c-41.7,0-75.5,33.8-75.5,75.5c0,37.4,27.22,68.37,62.91,74.37V99.89H53.02V78.8h18.21V63.25
		c0-18.05,11.02-27.88,27.12-27.88c7.71,0,14.34,0.57,16.26,0.83v18.86l-11.17,0.01c-8.75,0-10.44,4.16-10.44,10.26v13.46h20.89
		l-2.72,21.09H93.01v59.13c37.36-4.55,66.32-36.31,66.32-74.89C159.33,42.45,125.53,8.64,83.83,8.64z"/>
</g>
</svg>
