<?xml version="1.0" encoding="utf-8"?>
<!-- Generator: Adobe Illustrator 23.0.2, SVG Export Plug-In . SVG Version: 6.00 Build 0)  -->
<svg version="1.1" id="Capa_1" xmlns="http://www.w3.org/2000/svg" xmlns:xlink="http://www.w3.org/1999/xlink" x="0px" y="0px"
	 viewBox="0 0 167.66 167.66" style="enable-background:new 0 0 167.66 167.66;" xml:space="preserve">
<style type="text/css">
	.st0{fill:#3ACD02;}
	.st1{fill:#FEFEFE;}
	.st2{fill:#FCFDFB;}
</style>
<g>
	<g>
		<path class="st0" d="M164.7,64.15c0,2.77,0,5.54,0,8.31c-0.65,1.47-0.56,3.07-0.86,4.61c-2.45,12.58-8.68,23.07-17.91,31.79
			c-10.94,10.33-22.69,19.66-35.04,28.25c-7.06,4.91-14.24,9.62-21.93,13.5c-2.58,1.3-5.2,2.55-8.09,3.02
			c-2.1,0.35-3.22-0.57-3.29-2.7c-0.03-0.79,0.04-1.59,0.15-2.38c0.41-2.99,1.25-5.91,1.33-8.95c0.12-4.99-2.28-7.77-7.24-8.38
			c-9.6-1.17-18.84-3.65-27.62-7.69c-13.49-6.2-24.74-15.06-32.61-27.85C5.6,85.98,2.91,75.38,3.59,64.01
			c0.57-9.45,3.7-18.11,8.9-26c8.35-12.67,19.99-21.31,33.78-27.24c10.43-4.49,21.37-6.8,32.7-7.38c12.41-0.63,24.52,0.9,36.31,4.86
			c12.6,4.24,23.8,10.79,33.01,20.48c8.42,8.86,13.98,19.19,15.82,31.39C164.3,61.47,164.23,62.85,164.7,64.15z M99.23,70.54
			c-0.43-0.02-0.5-0.31-0.63-0.49C93.73,63.53,88.87,57,84.03,50.46c-1.29-1.74-3.21-2.43-5.2-1.81c-1.8,0.57-2.92,2.12-2.93,4.24
			c-0.02,10.2-0.01,20.4-0.01,30.59c0,1.23,0.35,2.31,1.24,3.2c1.23,1.23,3.24,1.63,4.91,0.91c1.71-0.74,2.59-2.09,2.59-3.95
			c0.02-5.71,0-11.42,0.02-17.12c0-0.33-0.21-0.74,0.22-1.04c0.26,0.35,0.52,0.68,0.77,1.01c4.78,6.53,9.56,13.07,14.35,19.6
			c1.21,1.65,3.2,2.25,5.15,1.6c1.77-0.59,2.85-2.09,2.86-4.15c0.02-10.24,0.01-20.48,0-30.72c0-1.27-0.43-2.39-1.4-3.25
			c-1.45-1.26-3.13-1.44-4.83-0.74c-1.72,0.71-2.52,2.15-2.52,4c-0.01,5.5,0,11,0,16.49C99.23,69.73,99.23,70.13,99.23,70.54z
			 M113.33,68.22c0,5.12-0.01,10.24,0.01,15.36c0.01,2.58,1.68,4.39,4.17,4.42c5.37,0.05,10.74,0.02,16.11,0
			c1.52-0.01,2.79-0.6,3.62-1.92c0.92-1.47,0.99-3.03,0.2-4.55c-0.78-1.51-2.11-2.25-3.8-2.26c-3.52-0.03-7.05-0.03-10.57,0.01
			c-0.76,0.01-1.03-0.17-0.99-0.97c0.06-1.51,0.07-3.02,0-4.53c-0.04-0.86,0.18-1.15,1.09-1.13c3.4,0.06,6.8,0.04,10.2,0.02
			c2.77-0.02,4.61-1.81,4.6-4.41c-0.01-2.6-1.86-4.34-4.64-4.34c-3.4-0.01-6.8-0.03-10.2,0.02c-0.84,0.01-1.08-0.24-1.04-1.06
			c0.06-1.47,0.09-2.94-0.01-4.4c-0.07-1.06,0.35-1.22,1.28-1.21c3.31,0.05,6.63,0.02,9.95,0.02c1.35,0,2.59-0.3,3.52-1.37
			c1.25-1.43,1.5-3.08,0.77-4.81c-0.73-1.72-2.13-2.56-3.98-2.56c-5.2-0.02-10.41-0.02-15.61-0.01c-3,0.01-4.64,1.67-4.65,4.7
			C113.33,58.24,113.33,63.23,113.33,68.22z M33.27,68.24c0,5.07-0.01,10.15,0.01,15.22c0.01,2.5,1.61,4.39,3.88,4.41
			c5.58,0.06,11.16,0.02,16.73,0.01c1.35,0,2.43-0.62,3.19-1.72c0.99-1.43,1.11-2.98,0.38-4.53c-0.75-1.59-2.06-2.4-3.81-2.42
			c-3.4-0.03-6.79-0.06-10.19,0.01c-1.13,0.02-1.46-0.26-1.45-1.43c0.06-8.18,0.02-16.36,0.04-24.53c0-1.41-0.29-2.67-1.36-3.64
			c-1.42-1.29-3.1-1.49-4.81-0.81c-1.78,0.71-2.59,2.19-2.59,4.08C33.26,58,33.27,63.12,33.27,68.24z M70,68.31
			c0-5.03,0-10.06,0-15.09c0-2.91-1.69-4.74-4.36-4.75c-2.67-0.01-4.39,1.81-4.39,4.7c-0.01,10.02-0.01,20.04,0,30.06
			c0,2.87,1.66,4.66,4.29,4.66c2.77,0,4.46-1.73,4.46-4.62C70.01,78.29,70,73.3,70,68.31z"/>
		<path class="st1" d="M164.7,64.15c-0.47-1.3-0.4-2.69-0.6-4.03c-1.84-12.19-7.4-22.53-15.82-31.39
			c-9.21-9.69-20.4-16.24-33.01-20.48c-11.78-3.96-23.9-5.49-36.31-4.86c-11.33,0.57-22.26,2.89-32.7,7.38
			C32.48,16.7,20.83,25.33,12.49,38c-5.19,7.89-8.33,16.55-8.9,26C2.91,75.38,5.6,85.98,11.57,95.7
			c7.86,12.79,19.12,21.65,32.61,27.85c8.79,4.04,18.03,6.52,27.62,7.69c4.96,0.6,7.36,3.38,7.24,8.38
			c-0.07,3.04-0.92,5.96-1.33,8.95c-0.11,0.79-0.17,1.59-0.15,2.38c0.07,2.13,1.19,3.05,3.29,2.7c2.89-0.48,5.51-1.72,8.09-3.02
			c7.69-3.88,14.87-8.59,21.93-13.5c12.35-8.59,24.1-17.92,35.04-28.25c9.24-8.72,15.46-19.21,17.91-31.79
			c0.3-1.53,0.21-3.14,0.86-4.61c0,28.03,0,56.06,0.02,84.09c0,0.83-0.12,1.05-1.01,1.05c-53.13-0.03-106.25-0.03-159.38,0
			c-0.95,0-1.08-0.24-1.08-1.11c0.02-53.08,0.02-106.17,0-159.25c0-0.86,0.12-1.12,1.07-1.12c53.13,0.03,106.25,0.03,159.38,0
			c0.89,0,1.02,0.21,1.02,1.05C164.69,19.51,164.7,41.83,164.7,64.15z"/>
		<path class="st2" d="M99.23,70.54c0-0.41,0-0.81,0-1.21c0-5.5-0.01-11,0-16.49c0-1.85,0.8-3.29,2.52-4
			c1.7-0.7,3.38-0.52,4.83,0.74c0.98,0.85,1.4,1.97,1.4,3.25c0.01,10.24,0.01,20.48,0,30.72c0,2.06-1.08,3.57-2.86,4.15
			c-1.95,0.65-3.94,0.05-5.15-1.6c-4.79-6.53-9.57-13.06-14.35-19.6c-0.25-0.34-0.5-0.67-0.77-1.01c-0.43,0.3-0.22,0.71-0.22,1.04
			c-0.02,5.71,0,11.42-0.02,17.12c0,1.86-0.88,3.21-2.59,3.95c-1.67,0.72-3.67,0.33-4.91-0.91c-0.88-0.88-1.24-1.97-1.24-3.2
			c0-10.2-0.01-20.4,0.01-30.59c0-2.11,1.13-3.67,2.93-4.24c1.99-0.63,3.91,0.06,5.2,1.81C88.87,57,93.73,63.53,98.6,70.05
			C98.73,70.24,98.8,70.52,99.23,70.54z"/>
		<path class="st2" d="M113.33,68.22c0-4.99-0.01-9.99,0-14.98c0.01-3.03,1.65-4.7,4.65-4.7c5.2-0.01,10.41-0.02,15.61,0.01
			c1.84,0.01,3.25,0.84,3.98,2.56c0.74,1.73,0.48,3.37-0.77,4.81c-0.92,1.06-2.16,1.37-3.52,1.37c-3.32-0.01-6.63,0.03-9.95-0.02
			c-0.93-0.01-1.35,0.15-1.28,1.21c0.1,1.46,0.07,2.94,0.01,4.4c-0.03,0.82,0.2,1.07,1.04,1.06c3.4-0.05,6.8-0.02,10.2-0.02
			c2.78,0,4.63,1.74,4.64,4.34c0.01,2.61-1.83,4.39-4.6,4.41c-3.4,0.02-6.8,0.04-10.2-0.02c-0.91-0.02-1.13,0.27-1.09,1.13
			c0.07,1.51,0.06,3.02,0,4.53c-0.03,0.8,0.23,0.98,0.99,0.97c3.52-0.04,7.05-0.03,10.57-0.01c1.69,0.01,3.02,0.75,3.8,2.26
			c0.79,1.53,0.72,3.09-0.2,4.55c-0.83,1.32-2.1,1.91-3.62,1.92c-5.37,0.02-10.74,0.04-16.11,0c-2.49-0.02-4.16-1.84-4.17-4.42
			C113.32,78.46,113.33,73.34,113.33,68.22z"/>
		<path class="st2" d="M33.27,68.24c0-5.12-0.01-10.23,0-15.35c0-1.89,0.81-3.37,2.59-4.08c1.71-0.68,3.39-0.48,4.81,0.81
			c1.08,0.97,1.37,2.24,1.36,3.64c-0.02,8.18,0.02,16.36-0.04,24.53c-0.01,1.17,0.32,1.46,1.45,1.43c3.4-0.07,6.79-0.04,10.19-0.01
			c1.75,0.01,3.07,0.83,3.81,2.42c0.73,1.56,0.61,3.11-0.38,4.53c-0.76,1.1-1.84,1.72-3.19,1.72c-5.58,0.02-11.16,0.05-16.73-0.01
			c-2.27-0.02-3.87-1.92-3.88-4.41C33.25,78.39,33.27,73.31,33.27,68.24z"/>
		<path class="st2" d="M70,68.31c0,4.99,0.01,9.98,0,14.97c-0.01,2.89-1.69,4.62-4.46,4.62c-2.62,0-4.29-1.79-4.29-4.66
			c-0.01-10.02-0.01-20.04,0-30.06c0-2.9,1.72-4.72,4.39-4.7c2.67,0.01,4.35,1.84,4.36,4.75C70.01,58.25,70,63.28,70,68.31z"/>
	</g>
</g>
</svg>
