<?xml version="1.0" encoding="utf-8"?>
<!-- Generator: Adobe Illustrator 23.0.2, SVG Export Plug-In . SVG Version: 6.00 Build 0)  -->
<svg version="1.1" id="Capa_1" xmlns="http://www.w3.org/2000/svg" xmlns:xlink="http://www.w3.org/1999/xlink" x="0px" y="0px"
	 viewBox="0 0 167.66 167.66" style="enable-background:new 0 0 167.66 167.66;" xml:space="preserve">
<style type="text/css">
	.st0{fill:#2196F3;}
</style>
<path class="st0" d="M54.07,72.85c3.9,16.39,24.97,36.68,40.58,40.58c7.02,1.56,14.83-2.34,17.17-9.36l0,0
	C114.93,93.92,128.2,90.8,136,98.6l21.85,21.85c5.46,5.46,5.46,14.83,0,21.07l-14.83,14.83c-15.61,15.61-56.97-1.56-93.64-38.24
	C12.71,81.43-3.68,40.07,11.15,24.47L25.97,9.64c5.46-5.46,14.83-5.46,21.07,0l21.85,21.85c7.8,7.8,4.68,21.07-5.46,24.19l0,0
	C56.41,58.02,51.72,65.83,54.07,72.85z"/>
</svg>
