<?xml version="1.0" encoding="utf-8"?>
<!-- Generator: Adobe Illustrator 23.0.2, SVG Export Plug-In . SVG Version: 6.00 Build 0)  -->
<svg version="1.1" id="Capa_1" xmlns="http://www.w3.org/2000/svg" xmlns:xlink="http://www.w3.org/1999/xlink" x="0px" y="0px"
	 viewBox="0 0 167.66 167.66" style="enable-background:new 0 0 167.66 167.66;" xml:space="preserve">
<style type="text/css">
	.st0{fill:#FF0000;}
	.st1{fill:#FFFFFF;}
</style>
<path class="st0" d="M163.35,46.77c-1.91-7.12-7.52-12.72-14.64-14.64c-13-3.56-64.99-3.56-64.99-3.56s-51.99,0-64.99,3.42
	C11.75,33.91,6,39.66,4.09,46.77c-3.42,13-3.42,39.95-3.42,39.95s0,27.09,3.42,39.95c1.92,7.11,7.52,12.72,14.64,14.64
	c13.13,3.56,64.99,3.56,64.99,3.56s51.99,0,64.99-3.42c7.12-1.91,12.72-7.52,14.64-14.64c3.42-13,3.42-39.95,3.42-39.95
	S166.9,59.77,163.35,46.77z"/>
<path class="st1" d="M66.91,111l42.91-24.71L66.91,61.57V111z"/>
</svg>
