<?xml version="1.0" encoding="utf-8"?>
<!-- Generator: Adobe Illustrator 21.0.0, SVG Export Plug-In . SVG Version: 6.00 Build 0)  -->
<svg version="1.1" id="Layer_1" xmlns="http://www.w3.org/2000/svg" xmlns:xlink="http://www.w3.org/1999/xlink" x="0px" y="0px"
	 viewBox="0 0 196 54.5" style="enable-background:new 0 0 196 54.5;" xml:space="preserve">
<style type="text/css">
	.st0{fill:#1D273B;}
	.st1{fill:#2196F3;}
	.st2{fill:#231F20;}
	.st3{fill:#FFFFFF;}
</style>
<path class="st0" d="M160.7,18.7c-5,0-9.1,4.1-9.1,9.2c0,5.1,4.1,9.2,9.1,9.2s9.1-4.1,9.1-9.2C169.8,22.8,165.7,18.7,160.7,18.7z
	 M160.7,32.2c-2.3,0-4.1-1.9-4.1-4.3s1.9-4.3,4.1-4.3s4.1,1.9,4.1,4.3S163,32.2,160.7,32.2z"/>
<path class="st0" d="M182,18.6c-5,0-9.1,4.1-9.1,9.1v7.1c0,1.4,1.1,2.5,2.5,2.5s2.5-1.1,2.5-2.5v-7.1c0-2.3,1.9-4.1,4.1-4.1
	c2.3,0,4.1,1.9,4.1,4.1v7.1h0c0.1,1.3,1.1,2.3,2.4,2.3c1.3,0,2.4-1,2.4-2.3h0v-7.1C191.1,22.7,187,18.6,182,18.6z"/>
<path class="st0" d="M92.9,18.7L92.9,18.7l-1.3,0c-5,0-9.1,4.1-9.1,9v7c0,1.4,1.1,2.5,2.5,2.5c1.4,0,2.5-1.1,2.5-2.5v-7
	c0-2.3,1.9-4.1,4.1-4.1h1c0.1,0,0.2,0,0.3,0c1.4,0,2.5-1.1,2.5-2.5S94.3,18.7,92.9,18.7z"/>
<path class="st0" d="M112.3,21.1L112.3,21.1L112.3,21.1c0-1.4-1.1-2.5-2.5-2.5c-1.4,0-2.5,1.1-2.5,2.5c0,0,0,0,0,0l0,7
	c0,2.3-1.8,4.1-4.1,4.1V21.2c0,0,0,0,0,0c0-1.4-1.1-2.5-2.5-2.5c-1.4,0-2.5,1.1-2.5,2.5h0v16.1h4.9v0c5,0,9-4.1,9-9.1L112.3,21.1
	L112.3,21.1C112.3,21.1,112.3,21.1,112.3,21.1z"/>
<path class="st0" d="M118.4,18.7c-1.4,0-2.5,1.1-2.5,2.5c0,0,0,0.1,0,0.1h0v13.4c0,0,0,0,0,0s0,0,0,0V35h0c0.1,1.2,1.2,2.2,2.4,2.2
	c1.3,0,2.3-1,2.4-2.2h0v-0.2c0,0,0,0,0,0s0,0,0,0V21.3h0c0,0,0-0.1,0-0.1C120.8,19.8,119.7,18.7,118.4,18.7z"/>
<path class="st0" d="M145.8,18.7c-1.4,0-2.5,1.1-2.5,2.5c0,0,0,0.1,0,0.1h0v13.5c0,0,0,0,0,0s0,0,0,0V35h0c0.1,1.2,1.2,2.2,2.4,2.2
	s2.3-1,2.4-2.2h0v-0.2c0,0,0,0,0,0s0,0,0,0V21.3h0c0,0,0-0.1,0-0.1C148.2,19.8,147.1,18.7,145.8,18.7z"/>
<path class="st0" d="M79.4,25.5c-1-3.9-4.5-6.8-8.7-6.8v0c0,0,0,0,0,0c0,0,0,0,0,0v0c-5,0-9,4.1-9,9.2s4,9.2,9,9.2v0c0,0,0,0,0,0
	c0,0,0,0,0,0v0c1.6,0,3.1-0.4,4.4-1.2c0,0,0.1,0,0.1-0.1c0.1-0.1,0.2-0.1,0.3-0.2c0.2-0.1,0.4-0.3,0.6-0.5c0,0,0,0,0,0
	c0,0,0.1-0.1,0.1-0.1c0,0,0,0,0,0c0,0,0.1-0.1,0.1-0.1c0,0,0.1-0.1,0.1-0.1c0,0,0,0,0,0c0-0.1,0.1-0.1,0.1-0.2c0,0,0,0,0,0
	c0,0,0-0.1,0.1-0.1c0.2-0.4,0.4-0.8,0.4-1.3c0-1.4-1.1-2.5-2.5-2.5c-0.6,0-1.2,0.2-1.6,0.6c-0.7,0.5-1.5,0.8-2.4,0.8
	c-1.9,0-3.5-1.3-4-3.1h10.4l0,0c0,0,1.2,0,1.9-0.9s0.6-1.6,0.4-2.4C79.4,25.7,79.4,25.6,79.4,25.5z M67.1,25.8
	c0.7-1.3,2.1-2.2,3.6-2.2c1.5,0,2.9,0.9,3.6,2.2H67.1z"/>
<path class="st0" d="M137,27.2c-0.4-0.1-0.9-0.3-1.4-0.4h0c-0.1,0-0.3-0.1-0.4-0.1c-3.9-1.1-3.9-1.1-3.9-1.1l-0.9-0.3
	c0,0-0.3-0.1-0.5-0.2v0l0,0c-0.1,0-0.2-0.1-0.2-0.1c-0.4-0.4-0.2-1-0.2-1c0.2-0.5,0.8-1,2.4-1c1.3,0,2.1,0.5,2.7,0.9l0,0
	c0,0,0.7,0.6,1.1,0.9c0.4,0.3,1.2,0.8,2.2,0.4c0.6-0.3,1-0.7,1.1-1c0.2-0.4,0.5-1.2,0.1-2.1c-0.4-0.9-1.3-1.5-1.3-1.5l0,0
	c-1.2-0.9-3-1.7-5.8-1.7c-7.9,0-7.5,5.8-7.5,5.8s0.1,3.2,2.8,4.1c0.4,0.1,0.9,0.3,1.4,0.4h0c0.1,0,0.3,0.1,0.4,0.1
	c3.9,1.1,3.9,1.1,3.9,1.1l0.9,0.3c0,0,0.3,0.1,0.5,0.2v0l0,0c0.1,0,0.2,0.1,0.2,0.1c0.4,0.4,0.2,1,0.2,1c-0.2,0.5-0.8,1-2.4,1
	c-2.1,0-3-1.2-3.3-1.6c0,0,0-0.1-0.1-0.1c0,0,0,0,0,0h0c-0.4-0.6-1.1-1.1-1.9-1.1c-1.3,0-2.3,1-2.3,2.3c0,0.2,0,0.3,0,0.5
	c0,0,0,0.1,0,0.2c0,0.1,0.1,0.2,0.1,0.3c0.2,0.6,0.8,1.6,2.3,2.4c0,0,0,0,0,0c1.2,0.7,2.8,1.2,5.2,1.2c7.9,0,7.5-5.8,7.5-5.8
	S139.8,28.1,137,27.2z"/>
<path class="st0" d="M58.2,32.2C58.2,32.2,58.2,32.2,58.2,32.2l-2.3,0c-2.3,0-4.1-1.9-4.1-4.1v-4.4h3.6v0c0,0,0,0,0,0
	c1.4,0,2.4-1.1,2.4-2.4c0-1.4-1.1-2.4-2.4-2.4c0,0,0,0,0,0v0h-3.6v-1.4v-0.5v0.8v-2.2v0c0-1.3-1.1-2.5-2.5-2.5
	c-1.3,0-2.5,1.1-2.5,2.5v1.9v0.4v-0.8v0.5V28c0,5,4.1,9.1,9.1,9.1h2.4v0c1.4,0,2.4-1.1,2.4-2.5C60.6,33.3,59.6,32.2,58.2,32.2z"/>
<path class="st1" d="M30.7,40.3l-22.8,11c-2,0.9-3.6-0.2-3.6-2.6V21c0-2.4,1.6-5.1,3.6-6.1L30.7,4c2-0.9,3.6,0.2,3.6,2.6v27.6
	C34.2,36.6,32.6,39.3,30.7,40.3z"/>
<path class="st2" d="M16.8,34.7c0,1.4,1.1,2.4,2.4,2.4c1.4,0,2.4-1.1,2.4-2.4V21.3l-4.9,2.1V34.7z"/>
<path class="st0" d="M34.2,18.7c-5,0-9,4.1-9,9v7c0,1.4,1.1,2.4,2.4,2.4c1.4,0,2.4-1.1,2.4-2.4v-7c0-2.3,1.9-4.1,4.1-4.1
	c2.3,0,4.1,1.9,4.1,4.1v7h0c0.1,1.3,1.1,2.3,2.4,2.3s2.4-1,2.4-2.3h0v-7C43.3,22.7,39.2,18.7,34.2,18.7z"/>
<path class="st0" d="M19.2,18.7c-1.4,0-2.4,1.1-2.4,2.4c0,0,0,0.1,0,0.1h0v13.4c0,0,0,0,0,0c0,0,0,0,0,0v0.2h0
	c0.1,1.2,1.2,2.2,2.4,2.2c1.3,0,2.3-1,2.4-2.2h0v-0.2c0,0,0,0,0,0c0,0,0,0,0,0V21.2h0c0,0,0-0.1,0-0.1
	C21.7,19.7,20.6,18.7,19.2,18.7z"/>
<path class="st3" d="M19.2,25.8L19.2,25.8c-1.3,0-2.4,2.8-2.4,1.4v-6.1c0-1.3,1.1-2.4,2.4-2.4h0c1.3,0,2.4,1.1,2.4,2.4v5
	C21.7,24.5,20.6,25.8,19.2,25.8z"/>
<polygon class="st0" points="16.8,29.2 21.7,26.8 21.7,23.3 16.8,25.9 "/>
</svg>
